<?xml version="1.0" encoding="UTF-8" standalone="no"?><!DOCTYPE svg PUBLIC "-//W3C//DTD SVG 1.1//EN" "http://www.w3.org/Graphics/SVG/1.1/DTD/svg11.dtd"><svg width="100%" height="100%" viewBox="0 0 128 128" version="1.1" xmlns="http://www.w3.org/2000/svg" xmlns:xlink="http://www.w3.org/1999/xlink" xml:space="preserve" xmlns:serif="http://www.serif.com/" style="fill-rule:evenodd;clip-rule:evenodd;stroke-linecap:round;stroke-linejoin:round;stroke-miterlimit:1.5;"><rect x="0" y="0" width="128" height="128"/><path d="M56.7,39.5c2.4,-0.5 4.8,-0.8 7.3,-0.8c2.5,0 5,0.3 7.3,0.8c0.1,-0.1 0.1,-0.2 0.2,-0.4c4.6,-6.3 18.7,-13.8 22.1,-14.9c2.4,-0.7 2.7,0.6 4.3,8.7c2.2,11.3 0.2,12.6 -2.4,30.2c0.7,2.6 1,5.3 1,8c0,18 -14.6,32.6 -32.6,32.6c-18,0 -32.6,-14.6 -32.6,-32.6c0,-2.8 0.3,-5.5 1,-8c-2.5,-17.6 -4.6,-18.9 -2.4,-30.2c1.6,-8.2 1.9,-9.5 4.3,-8.7c3.4,1 17.5,8.6 22.1,14.9c0.1,0.1 0.2,0.2 0.2,0.4Z" style="fill:none;stroke:rgb(119,68,255);stroke-width:20px;"/></svg>